Coordinates
version=1
nRows=9
nColumns=63
inDegrees=yes

Units are S.I. units (second, meters, Newtons, ...)
If the header above contains a line with 'inDegrees', this indicates whether rotational values are in degrees (yes) or radians (no).

endheader
time	pelvis_tilt	pelvis_list	pelvis_rotation	pelvis_tx	pelvis_ty	pelvis_tz	hip_flexion_r	hip_adduction_r	hip_rotation_r	knee_angle_r	knee_angle_r_beta	ankle_angle_r	subtalar_angle_r	mtp_angle_r	hip_flexion_l	hip_adduction_l	hip_rotation_l	knee_angle_l	knee_angle_l_beta	ankle_angle_l	subtalar_angle_l	mtp_angle_l	L5_S1_Flex_Ext	L5_S1_Lat_Bending	L5_S1_axial_rotation	L4_L5_Flex_Ext	L4_L5_Lat_Bending	L4_L5_axial_rotation	L3_L4_Flex_Ext	L3_L4_Lat_Bending	L3_L4_axial_rotation	L2_L3_Flex_Ext	L2_L3_Lat_Bending	L2_L3_axial_rotation	L1_L2_Flex_Ext	L1_L2_Lat_Bending	L1_L2_axial_rotation	L1_T12_Flex_Ext	L1_T12_Lat_Bending	L1_T12_axial_rotation	Abs_r3	Abs_r2	Abs_r1	Abs_t1	Abs_t2	neck_flexion	neck_bending	neck_rotation	arm_flex_r	arm_add_r	arm_rot_r	elbow_flex_r	pro_sup_r	wrist_flex_r	wrist_dev_r	arm_flex_l	arm_add_l	arm_rot_l	elbow_flex_l	pro_sup_l	wrist_flex_l	wrist_dev_l
      2.51666667	     -0.66164573	      4.04031934	    -73.14762123	      0.03642040	      0.95109453	     -1.36139510	      1.37512142	      5.42196433	    -36.50070941	     22.15685776	      0.38671012	     22.51874955	    -11.52418997	      0.00000000	     30.78158344	     16.99670118	     30.43424509	     18.80560411	      0.32821971	    -15.17547179	    -18.81542818	      0.00000000	     -0.02975825	      0.46394854	     -1.92571239	     -0.05526404	      0.61705156	     -2.04606942	     -0.04888983	      1.12804448	     -2.04606942	     -0.03401070	      1.12804448	     -1.68499835	     -0.02763351	      0.94608386	     -1.56464132	     -0.01700386	      0.71865629	     -1.44428430	     -0.21256020	      5.24827865	    -10.71023463	      0.00000000	      0.00000000	    -11.43390029	      4.91970726	    -13.47162060	    -19.10828252	    -21.00222665	    -28.45657662	     46.85896619	     89.99559364	      0.00000000	      0.00000000	     -6.30021162	    -22.74007074	     18.73809300	     22.12530797	     89.99559364	      0.00000000	      0.00000000
      2.53333333	     -1.34546625	      3.12346442	    -75.38249323	      0.03129073	      0.95129855	     -1.35130977	     -0.26054444	      6.97442560	    -33.88520786	     21.40993531	      0.37367386	     21.83951022	    -11.42410786	      0.00000000	     30.79023162	     15.06870586	     26.25334520	     21.71112960	      0.37893070	    -13.33938694	    -17.35070794	      0.00000000	     -0.03026567	      0.45247428	     -2.03781639	     -0.05620637	      0.60179079	     -2.16517991	     -0.04972347	      1.10014596	     -2.16517991	     -0.03459063	      1.10014596	     -1.78308934	     -0.02810470	      0.92268555	     -1.65572582	     -0.01729380	      0.70088266	     -1.52836229	     -0.21618464	      5.11847952	    -11.33372341	      0.00000000	      0.00000000	    -13.54625890	      4.37073901	     -8.31998112	    -18.03105130	    -22.47870126	    -24.95521197	     48.74599547	     89.99559364	      0.00000000	      0.00000000	     -6.76312880	    -23.11908578	     17.92327949	     21.14312796	     89.99559364	      0.00000000	      0.00000000
      2.55000000	     -1.91283994	      2.34064576	    -77.20229190	      0.02604433	      0.95172089	     -1.34135992	     -1.88678535	      8.32809278	    -31.41170235	     20.61155281	      0.35973946	     21.26837065	    -11.58453304	      0.00000000	     31.20218543	     12.63326093	     18.90521358	     24.68610562	      0.43085382	    -10.22600144	    -10.39804691	      0.00000000	     -0.03288588	      0.41085548	     -2.08773745	     -0.06107238	      0.54643778	     -2.21822104	     -0.05402822	      0.99895401	     -2.21822104	     -0.03758528	      0.99895401	     -1.82677027	     -0.03053783	      0.83781649	     -1.69628668	     -0.01879099	      0.63641513	     -1.56580309	     -0.23490058	      4.64767933	    -11.61136938	      0.00000000	      0.00000000	    -15.35125143	      3.62603382	     -4.76003622	    -17.14196369	    -23.71280956	    -21.88956446	     50.34753259	     89.99559364	      0.00000000	      0.00000000	     -6.84793083	    -23.73173778	     17.36108178	     20.31966957	     89.99559364	      0.00000000	      0.00000000
      2.56666667	     -2.47694266	      1.82297720	    -78.46899279	      0.02132939	      0.95230441	     -1.33104141	     -3.30587742	      9.56123312	    -29.23359368	     19.81238326	      0.34579132	     20.60005622	    -12.04178188	      0.00000000	     31.73656303	      9.96401053	     11.30933923	     27.47687004	      0.47956185	     -7.70367297	     -2.23973714	      0.00000000	     -0.03496360	      0.35684460	     -1.95721602	     -0.06493089	      0.47460332	     -2.07954202	     -0.05744169	      0.86763197	     -2.07954202	     -0.03995989	      0.86763197	     -1.71256402	     -0.03246719	      0.72767751	     -1.59023801	     -0.01997820	      0.55275229	     -1.46791201	     -0.24974147	      4.03669751	    -10.88544832	      0.00000000	      0.00000000	    -16.39246611	      3.71846688	     -3.05161294	    -17.19100283	    -24.35713802	    -21.04860065	     52.07292887	     89.99559364	      0.00000000	      0.00000000	     -6.09857020	    -24.32654698	     16.83746633	     19.61746343	     89.99559364	      0.00000000	      0.00000000
      2.58333333	     -3.12534815	      1.67418014	    -79.32031048	      0.01761387	      0.95301788	     -1.32004764	     -4.35635449	     10.61428722	    -27.92753899	     19.16628881	      0.33451485	     20.03628234	    -11.85918966	      0.00000000	     32.10118334	      7.95988906	      7.17530586	     29.59420789	      0.51651637	     -6.47438216	      1.53098555	      0.00000000	     -0.03450439	      0.30404172	     -1.61300571	     -0.06407811	      0.40437549	     -1.71381856	     -0.05668727	      0.73924704	     -1.71381856	     -0.03943507	      0.73924704	     -1.41137999	     -0.03204078	      0.62000188	     -1.31056714	     -0.01971581	      0.47096063	     -1.20975428	     -0.24646142	      3.43938077	     -8.97105383	      0.00000000	      0.00000000	    -16.82229613	      4.26143491	     -3.28129917	    -18.39439696	    -24.55936314	    -22.48162096	     54.02497798	     89.99559364	      0.00000000	      0.00000000	     -4.54621528	    -24.73091087	     16.36743021	     19.22577154	     89.99559364	      0.00000000	      0.00000000
      2.60000000	     -3.48379769	      1.87583517	    -79.65644283	      0.01423198	      0.95389312	     -1.30817690	     -4.90176599	     11.23043667	    -27.18231303	     18.98398520	      0.33133305	     19.49372234	    -11.96140110	      0.00000000	     32.34018847	      6.80824380	      4.99002870	     30.92553160	      0.53975235	     -5.51616066	      3.52089760	      0.00000000	     -0.03394577	      0.19581805	     -1.23897299	     -0.06304069	      0.26043800	     -1.31640880	     -0.05576951	      0.47611200	     -1.31640880	     -0.03879662	      0.47611200	     -1.08410136	     -0.03152204	      0.39931216	     -1.00666555	     -0.01939661	      0.30332216	     -0.92922974	     -0.24247124	      2.21513293	     -6.89079607	      0.00000000	      0.00000000	    -16.65727128	      5.27768451	     -4.53307342	    -19.93548206	    -24.24382437	    -24.91669410	     55.87177904	     89.99559364	      0.00000000	      0.00000000	     -3.04995774	    -25.32570893	     15.52453631	     19.68119573	     89.99559364	      0.00000000	      0.00000000
      2.61666667	     -3.92721271	      2.29955940	    -79.86900788	      0.01110734	      0.95474525	     -1.29530222	     -4.95756514	     11.68458212	    -26.95683075	     19.50134395	      0.34036266	     18.88303862	    -11.86088134	      0.00000000	     32.51977834	      6.29038695	      5.42637793	     31.76001275	      0.55431679	     -4.49398653	      2.92710181	      0.00000000	     -0.03091265	      0.08256507	     -0.96234485	     -0.05740788	      0.10981154	     -1.02249141	     -0.05078639	      0.20074870	     -1.02249141	     -0.03533007	      0.20074870	     -0.84205175	     -0.02870549	      0.16836668	     -0.78190519	     -0.01766349	      0.12789329	     -0.72175864	     -0.22080597	      0.93399255	     -5.35227338	      0.00000000	      0.00000000	    -15.90588292	      6.56819099	     -6.38834254	    -21.34422396	    -24.24003117	    -26.58866710	     57.98031548	     89.99559364	      0.00000000	      0.00000000	     -2.99975992	    -25.17997109	      7.97824440	     21.21265587	     89.99559364	      0.00000000	      0.00000000
      2.63333333	     -4.39459210	      2.74802365	    -80.00372159	      0.00807318	      0.95558895	     -1.28205461	     -4.55337151	     11.71111342	    -27.93679854	     21.19089970	      0.36985097	     18.51828621	    -10.55604940	      0.00000000	     32.48725273	      6.37376458	      8.12344165	     32.22563181	      0.56244338	     -3.28411383	      0.06317128	      0.00000000	     -0.03085478	     -0.03574831	     -0.90037520	     -0.05730042	     -0.04754525	     -0.95664865	     -0.05069132	     -0.08691844	     -0.95664865	     -0.03526393	     -0.08691844	     -0.78782830	     -0.02865175	     -0.07289795	     -0.73155485	     -0.01763042	     -0.05537413	     -0.67528140	     -0.22039264	     -0.40439201	     -5.00761674	      0.00000000	      0.00000000	    -15.13427954	      7.34113099	     -7.36474052	    -21.88485584	    -24.67361228	    -27.13807212	     60.33376677	     89.99559364	      0.00000000	      0.00000000	     -3.84612356	    -25.66225578	      4.04120255	     23.08273104	     89.99559364	      0.00000000	      0.00000000
      2.65000000	     -4.82176868	      3.08288647	    -80.01667990	      0.00482601	      0.95641314	     -1.26910553	     -3.66965323	     11.38243267	    -28.95656522	     24.09992410	      0.42062302	     17.89856178	     -9.59335259	      0.00000000	     32.21901833	      6.91808616	     12.38632446	     32.63260085	      0.56954633	     -2.02559787	     -4.64529198	      0.00000000	     -0.02908315	     -0.16755467	     -1.04405474	     -0.05401032	     -0.22284771	     -1.10930817	     -0.04778071	     -0.40739242	     -1.10930817	     -0.03323913	     -0.40739242	     -0.91354790	     -0.02700661	     -0.34167748	     -0.84829448	     -0.01661811	     -0.25954218	     -0.78304106	     -0.20773805	     -1.89541190	     -5.80671927	      0.00000000	      0.00000000	    -14.69220984	      7.44720978	     -7.14641687	    -21.54508350	    -25.62276431	    -26.45298246	     62.71211772	     89.99559364	      0.00000000	      0.00000000	     -5.36073128	    -26.57079008	      1.41219743	     24.81480066	     89.99559364	      0.00000000	      0.00000000
